<svg width="24" height="26" viewBox="0 0 24 26" fill="none" xmlns="http://www.w3.org/2000/svg">
<path d="M22.8286 20.8625C22.2391 19.4662 21.3837 18.1978 20.3099 17.1281C19.2394 16.0553 17.9712 15.2 16.5755 14.6094C16.563 14.6031 16.5505 14.6 16.538 14.5938C18.4849 13.1875 19.7505 10.8969 19.7505 8.3125C19.7505 4.03125 16.2818 0.5625 12.0005 0.5625C7.71927 0.5625 4.25052 4.03125 4.25052 8.3125C4.25052 10.8969 5.51614 13.1875 7.46302 14.5969C7.45052 14.6031 7.43802 14.6062 7.42552 14.6125C6.02552 15.2031 4.76927 16.05 3.69114 17.1313C2.61836 18.2018 1.76303 19.4699 1.17239 20.8656C0.592149 22.232 0.27921 23.697 0.250517 25.1812C0.249683 25.2146 0.255533 25.2478 0.267723 25.2788C0.279912 25.3099 0.298195 25.3382 0.321493 25.3621C0.344791 25.386 0.372634 25.4049 0.40338 25.4179C0.434126 25.4308 0.467154 25.4375 0.500517 25.4375H2.37552C2.51302 25.4375 2.62239 25.3281 2.62552 25.1938C2.68802 22.7813 3.65677 20.5219 5.36927 18.8094C7.14114 17.0375 9.49427 16.0625 12.0005 16.0625C14.5068 16.0625 16.8599 17.0375 18.6318 18.8094C20.3443 20.5219 21.313 22.7813 21.3755 25.1938C21.3786 25.3313 21.488 25.4375 21.6255 25.4375H23.5005C23.5339 25.4375 23.5669 25.4308 23.5977 25.4179C23.6284 25.4049 23.6562 25.386 23.6795 25.3621C23.7028 25.3382 23.7211 25.3099 23.7333 25.2788C23.7455 25.2478 23.7514 25.2146 23.7505 25.1812C23.7193 23.6875 23.4099 22.2344 22.8286 20.8625ZM12.0005 13.6875C10.5661 13.6875 9.21614 13.1281 8.20052 12.1125C7.18489 11.0969 6.62552 9.74688 6.62552 8.3125C6.62552 6.87812 7.18489 5.52812 8.20052 4.5125C9.21614 3.49687 10.5661 2.9375 12.0005 2.9375C13.4349 2.9375 14.7849 3.49687 15.8005 4.5125C16.8161 5.52812 17.3755 6.87812 17.3755 8.3125C17.3755 9.74688 16.8161 11.0969 15.8005 12.1125C14.7849 13.1281 13.4349 13.6875 12.0005 13.6875Z" fill="white"/>
</svg>
