<svg>
  <symbol xmlns="http://www.w3.org/2000/svg" viewBox="0 0 24 24" id="poweroff">
    <path d="M16.537 2.927a.188.188 0 00-.272.17V4.6c0 .129.068.248.176.319a8.255 8.255 0 011.458 1.167 8.319 8.319 0 012.442 5.906 8.33 8.33 0 01-2.442 5.906 8.274 8.274 0 01-2.653 1.79 8.265 8.265 0 01-3.246.657c-1.125 0-2.22-.22-3.246-.656A8.274 8.274 0 016.1 17.9a8.32 8.32 0 01-2.442-5.906A8.329 8.329 0 016.1 6.086 8.473 8.473 0 017.558 4.92a.374.374 0 00.176-.32V3.095c0-.14-.148-.23-.272-.169a10.14 10.14 0 00-5.587 8.941c-.066 5.597 4.511 10.247 10.106 10.259 5.601.012 10.144-4.53 10.144-10.134 0-3.966-2.274-7.4-5.588-9.064zM11.25 13.125h1.5a.188.188 0 00.187-.188V2.063a.188.188 0 00-.187-.188h-1.5a.188.188 0 00-.188.188v10.874c0 .104.085.188.188.188z"></path>
  </symbol>
</svg>
